<?xml version="1.0" standalone="no"?>
<!DOCTYPE svg PUBLIC "-//W3C//DTD SVG 20010904//EN"
 "http://www.w3.org/TR/2001/REC-SVG-20010904/DTD/svg10.dtd">
<svg version="1.0" xmlns="http://www.w3.org/2000/svg"
 width="390.000000pt" height="147.000000pt" viewBox="0 0 390.000000 147.000000"
 preserveAspectRatio="xMidYMid meet">

<g transform="translate(0.000000,147.000000) scale(0.100000,-0.100000)"
fill="#000000" stroke="none">
<path d="M889 1431 c-35 -35 -41 -97 -11 -124 49 -44 137 -23 167 39 29 62 -9
114 -83 114 -35 0 -49 -6 -73 -29z"/>
<path d="M360 1434 c-61 -7 -76 -13 -103 -39 -28 -28 -33 -51 -66 -300 -11
-77 -27 -195 -36 -263 -10 -67 -14 -126 -10 -130 3 -4 45 -7 91 -7 63 0 87 4
94 14 4 8 14 53 20 100 6 47 14 98 16 114 l6 27 158 0 c124 0 160 3 169 14 20
23 27 126 10 137 -8 5 -82 9 -165 9 l-150 0 10 78 11 77 178 5 c143 4 180 8
187 20 16 26 24 120 11 133 -12 12 -349 20 -431 11z"/>
<path d="M3515 1224 c-71 -19 -170 -44 -218 -56 -49 -11 -85 -24 -80 -28 4 -4
34 -15 65 -24 31 -9 59 -20 62 -25 11 -17 -202 -162 -383 -262 -147 -80 -417
-196 -430 -183 -3 2 6 15 19 29 95 102 310 455 310 510 0 25 -1 25 -90 25 -90
0 -91 0 -101 -27 -21 -57 -133 -283 -139 -283 -8 0 -46 102 -80 217 -30 101
-30 100 -127 95 -46 -2 -83 -7 -83 -11 0 -7 84 -252 145 -422 l27 -75 -47 -60
-48 -60 -306 -12 c-289 -11 -642 -41 -901 -77 -361 -49 -857 -160 -1052 -234
-37 -14 -51 -45 -45 -98 6 -52 41 -97 72 -90 11 3 65 24 120 47 144 60 362
131 580 190 383 102 739 158 1322 208 51 4 90 5 85 2 -4 -4 -56 -24 -116 -45
-289 -100 -482 -209 -552 -312 -32 -47 -30 -76 5 -115 29 -32 31 -33 125 -36
77 -3 111 0 169 18 83 25 213 92 307 158 86 61 221 191 277 268 l45 61 181 6
c213 7 622 -6 891 -29 103 -8 190 -13 192 -11 6 6 -207 35 -421 58 -115 11
-314 23 -467 26 -147 3 -265 9 -263 14 3 4 22 13 43 19 71 23 278 108 387 159
122 58 233 120 343 193 102 69 99 69 107 4 4 -31 11 -58 15 -61 7 -4 210 343
210 358 0 11 -18 8 -155 -29z m-1246 -751 c-122 -161 -245 -271 -379 -338
-130 -65 -259 -85 -295 -45 -16 18 -16 20 3 52 53 84 257 191 622 327 68 25
65 25 49 4z"/>
<path d="M884 1213 c-42 -8 -51 -34 -73 -198 -12 -88 -27 -193 -32 -234 -13
-87 -10 -91 71 -91 103 0 92 -19 130 251 29 207 31 242 19 254 -15 15 -81 26
-115 18z"/>
<path d="M1362 1205 c-18 -8 -46 -24 -62 -35 -30 -22 -45 -26 -35 -10 3 5 1
19 -5 30 -9 17 -21 20 -74 20 -43 0 -67 -5 -75 -14 -7 -8 -21 -81 -32 -163
-11 -81 -25 -188 -31 -236 -10 -75 -10 -90 2 -97 24 -15 137 -12 153 4 8 8 21
70 32 157 17 139 19 145 51 177 29 29 39 33 75 30 31 -2 47 -10 61 -28 17 -24
18 -30 3 -125 -9 -55 -19 -125 -22 -156 l-6 -56 33 -6 c52 -11 115 -8 132 6
19 14 58 248 58 345 0 65 -21 108 -73 146 -36 26 -138 33 -185 11z"/>
<path d="M1857 1206 c-185 -67 -251 -327 -113 -454 73 -67 174 -87 289 -57 52
14 137 57 137 71 0 3 -17 25 -37 48 l-37 43 -47 -24 c-51 -27 -116 -32 -161
-15 -27 11 -63 65 -54 80 3 4 79 7 171 5 96 -2 174 1 184 7 28 14 36 89 17
154 -17 59 -71 117 -132 142 -42 18 -167 17 -217 0z m148 -110 c30 -13 65 -58
65 -86 0 -6 -40 -10 -110 -10 -88 0 -110 3 -110 14 0 24 50 75 83 85 18 5 33
10 35 10 1 1 18 -5 37 -13z"/>
<path d="M3743 473 c9 -2 25 -2 35 0 9 3 1 5 -18 5 -19 0 -27 -2 -17 -5z"/>
</g>
</svg>
